<svg id="Capa_1" enable-background="new 0 0 512 512" height="512" viewBox="0 0 512 512" width="512" xmlns="http://www.w3.org/2000/svg"><g><g><path d="m163.268 64.23 20.146 78.19 19.027 9 20.537-9-22.609-87.75c-6.159-23.905-30.531-38.291-54.436-32.131l-55.714 14.355c-5.781 1.489-9.259 7.383-7.77 13.164l4.166 16.167c1.49 5.781 7.383 9.259 13.164 7.77l55.713-14.355c3.414-.88 6.896 1.175 7.776 4.59z" fill="#eef1f3"/><path d="m188.212 161.039 18.93 9 20.633-9-4.797-18.619h-39.564z" fill="#dee7ed"/><path d="m334.049 179.983c-.796 0-1.604-.123-2.402-.383-4.074-1.325-6.302-5.702-4.977-9.777l34.447-105.9c1.325-4.075 5.702-6.303 9.777-4.977 4.074 1.325 6.302 5.702 4.977 9.777l-34.447 105.9c-1.065 3.278-4.106 5.36-7.375 5.36z" fill="#365e7d"/><path d="m255.999 502.848c120.874 0 176.101-67.875 195.615-138.065 16.795-69.495 4.552-137.434 4.552-137.434h-400.332s-12.243 67.939 4.552 137.434c21.435 73.608 74.74 138.065 195.613 138.065z" fill="#b3e59f"/><path d="m64.988 218.113c0 11.645 21.904 23.788 40.887 23.788 11.813 0 30.381-18 49.064-18 19.335 0 38.793 18 51.019 18 12.019 0 31.03-18 50.041-18s38.022 18 50.042 18c12.018 0 31.027-18 50.036-18 19.013 0 38.026 18 50.047 18 18.982 0 40.887-13.014 40.887-23.788l-55.105-55.594c-.939-.947-2.217-1.48-3.551-1.48h-132.356-132.355c-1.334 0-2.612.533-3.551 1.48z" fill="#f4de7f"/><path d="m443.615 77.558-50.946-75.284c-1.327-1.961-3.815-2.77-6.042-1.965l-85.488 30.904 67.372 32.914z" fill="#dd646e"/><path d="m406.125 232.902c-24.039 0-39.608-12.824-46.292-19.791-2.052-2.139-5.447-2.139-7.499 0-6.684 6.967-22.253 19.791-46.292 19.791s-39.608-12.824-46.292-19.791c-2.052-2.139-5.446-2.139-7.499 0-6.684 6.967-22.253 19.791-46.292 19.791s-39.608-12.824-46.292-19.791c-2.052-2.139-5.447-2.139-7.499 0-6.684 6.967-22.253 19.791-46.292 19.791-18.983 0-32.672-7.994-40.887-14.788l-9.155 9.236s17.038 24.172 50.042 24.172c33.003 0 50.042-24.172 50.042-24.172s17.038 24.172 50.042 24.172c33.003 0 50.041-24.172 50.041-24.172s17.038 24.172 50.042 24.172c33.003 0 50.042-24.172 50.042-24.172s17.039 24.172 50.042 24.172 50.042-24.172 50.042-24.172l-9.154-9.236c-8.218 6.794-21.908 14.788-40.89 14.788z" fill="#eacb61"/><path d="m255.999 493.381c-120.874 0-173.661-62.294-195.614-128.598 17.582 72.756 66.99 147.217 195.614 147.217s178.033-74.462 195.615-147.217c-21.953 66.304-74.741 128.598-195.615 128.598z" fill="#95d6a4"/><path d="m301.139 31.213-12.942 4.679c-4.63 1.674-4.524 8.259.159 9.782l157.089 51.098c4.682 1.523 8.643-3.739 5.883-7.817l-7.713-11.397z" fill="#db4955"/></g></g></svg>