<svg height="512" viewBox="0 0 64 64" width="512" xmlns="http://www.w3.org/2000/svg"><path d="m50 4h10a0 0 0 0 1 0 0 10 10 0 0 1 -10 10h-10a0 0 0 0 1 0 0 10 10 0 0 1 10-10z" fill="#c4f236"/><path d="m56.54 4a10 10 0 0 1 -9.54 7h-6.54a9.91 9.91 0 0 0 -.46 3h10a10 10 0 0 0 10-10z" fill="#a1d51c"/><path d="m40.35 15a1 1 0 0 1 -.87-1.5 11 11 0 0 1 9.52-5.5 1 1 0 0 1 0 2 9 9 0 0 0 -7.79 4.5 1 1 0 0 1 -.86.5z" fill="#7ab92d"/><path d="m40 16h-3l-3-13h6z" fill="#c4f236"/><path d="m38 3v5a3 3 0 0 1 -2.18 2.87l1.18 5.13h3v-13z" fill="#a1d51c"/><path d="m33.88 12.94a15.86 15.86 0 0 0 -12.56 11.94l-2.89 12.12-.57 2.53a15.86 15.86 0 0 1 -11 11.74l-3.86 1.15a29.29 29.29 0 0 0 49.91-18.33 29.86 29.86 0 0 0 -.85-9.78 15.79 15.79 0 0 0 -18.18-11.37z" fill="#f9e109"/><path d="m52.06 24.31a15.5 15.5 0 0 0 -8.84-10.31 29.78 29.78 0 0 1 .69 9.05 29.4 29.4 0 0 1 -26.82 26.86 30.3 30.3 0 0 1 -6.62-.22 15.43 15.43 0 0 1 -3.57 1.57l-3.9 1.16a29.29 29.29 0 0 0 49.91-18.33 29.86 29.86 0 0 0 -.85-9.78z" fill="#fcbc04"/><path d="m51 25h-3v-8h4z" fill="#a1d51c"/><path d="m50.63 17-.26 2a3.39 3.39 0 0 1 -2.37 2.84v3.16h3l1-8z" fill="#7ab92d"/><path d="m56.42 26.57a10.78 10.78 0 0 1 3.28 11.32l-2.46 8.11-.54 1.68a10.83 10.83 0 0 0 2.41 10.66l1.89 2a19.92 19.92 0 0 1 -23-27.9 20.29 20.29 0 0 1 3.85-5.44 10.73 10.73 0 0 1 14.57-.43z" fill="#f9ed86"/><path d="m59.11 58.33a10.83 10.83 0 0 1 -2.41-10.66l.54-1.67 2.46-8.1a10.79 10.79 0 0 0 -2-10 16 16 0 0 1 -15.7 19.1 15.78 15.78 0 0 1 -5.3-.92 19.87 19.87 0 0 0 24.3 14.27z" fill="#f9e109"/><path d="m48 22a0 0 0 0 1 0 0v6a8 8 0 0 1 -8 8 0 0 0 0 1 0 0v-6a8 8 0 0 1 8-8z" fill="#c4f236"/><path d="m46 22.26v3.74a8 8 0 0 1 -6 7.74v2.26a8 8 0 0 0 8-8v-6a8.24 8.24 0 0 0 -2 .26z" fill="#a1d51c"/><path d="m48 24.2v-2.11a1 1 0 0 0 -.38.07 9 9 0 0 0 -5.62 8.34 1 1 0 0 0 2 0 7 7 0 0 1 4-6.3z" fill="#7ab92d"/></svg>