<svg id="Capa_1" enable-background="new 0 0 511.999 511.999" height="512" viewBox="0 0 511.999 511.999" width="512" xmlns="http://www.w3.org/2000/svg"><g><g><g><path d="m96.017 100.009c-57.424 33.506-96.017 95.764-96.017 167.044 0 106.742 86.531 193.273 193.273 193.273l42.906-216.598-42.906-143.719z" fill="#fecb2e"/><path d="m290.528 100.009h-97.255v360.317c106.741 0 193.273-86.531 193.273-193.273-.001-71.28-38.594-133.538-96.018-167.044z" fill="#fd9e35"/></g><path d="m164.427 38.776h102.612v30.104h-102.612z" fill="#f2e3cb" transform="matrix(.259 -.966 .966 .259 107.975 248.318)"/><g><path d="m114.977 33.692h-93.809v13.58c0 49.461 40.239 89.7 89.7 89.7h82.405l14.172-29.691-14.172-27.615c-15.368-27.407-44.702-45.974-78.296-45.974z" fill="#92e170"/><path d="m246.199 56.253c-20.944 0-39.816 9.038-52.925 23.416-.001-.001-.001-.002-.002-.003v57.306h56.041c39.494 0 71.625-32.131 71.625-71.626v-9.094h-74.739z" fill="#1fc979"/></g><g fill="#fef176"><path d="m118.538 172.595h30.104v30.106h-30.104z"/><path d="m88.433 202.701h30.104v30.106h-30.104z"/></g></g><g><path d="m243.861 431.147-30.744 28.22c33.997 33.997 79.917 52.258 124.574 52.258 44.658 0 89.315-16.998 123.312-50.996 1.017-1.017 2.017-2.045 3.003-3.081l-35.446-56.107-51.071-30.41z" fill="#fecb2e"/><path d="m461.004 214.003-32.185 32.185-48.971 123.782-2.358 1.061 86.517 86.517c64.975-68.216 63.975-176.567-3.003-243.545z" fill="#fd9e35"/></g><g><path d="m428.819 246.188-73.343 102.829 73.084 73.085c45.252-49.709 45.339-126.105.259-175.914z" fill="#fecb2e"/><path d="m355.476 349.017-4.653 6.524-106.962 75.606c24.857 22.497 56.336 33.747 87.816 33.747 33.534 0 67.067-12.764 92.596-38.293 1.473-1.473 2.9-2.974 4.288-4.499l-35.826-47.91z" fill="#ffe42f"/></g><path d="m340.733 334.274-96.873 96.873c24.858 22.497 56.336 33.747 87.816 33.747 33.534 0 67.067-12.764 92.596-38.293 1.473-1.473 2.9-2.974 4.288-4.499l-44.089-58.96zm-9.056 100.619c-14.16 0-27.974-2.931-40.648-8.488l45.08-45.08.636 53.445c-1.682.082-3.372.123-5.068.123zm35.102-6.226-.56-47.023 29.991 29.991c-8.851 7.378-18.788 13.106-29.431 17.032z" fill="#fef284"/><path d="m428.819 246.188-88.086 88.086 87.828 87.828c45.251-49.709 45.338-126.105.258-175.914zm-4.729 47.155c4.924 11.22 7.766 23.325 8.353 35.794l-44.515.368zm5.296 65.926c-2.718 10.609-7.142 20.676-13.123 29.847l-29.494-29.494z" fill="#ffe42f"/></g></svg>